<svg width="92" height="92" viewBox="0 0 92 92" fill="none" xmlns="http://www.w3.org/2000/svg">
<path d="M46 79.12C34.5 79.12 24.334 73.232 18.4 64.4C18.538 55.2 36.8 50.14 46 50.14C55.2 50.14 73.462 55.2 73.6 64.4C70.5589 68.9283 66.4509 72.6393 61.638 75.2062C56.825 77.7731 51.4547 79.1172 46 79.12ZM46 13.8C49.66 13.8 53.1701 15.2539 55.7581 17.8419C58.3461 20.4299 59.8 23.94 59.8 27.6C59.8 31.26 58.3461 34.7701 55.7581 37.3581C53.1701 39.9461 49.66 41.4 46 41.4C42.34 41.4 38.8299 39.9461 36.2419 37.3581C33.6539 34.7701 32.2 31.26 32.2 27.6C32.2 23.94 33.6539 20.4299 36.2419 17.8419C38.8299 15.2539 42.34 13.8 46 13.8ZM46 0C39.9592 0 33.9775 1.18983 28.3966 3.50154C22.8156 5.81326 17.7446 9.20159 13.4731 13.4731C4.84641 22.0998 0 33.8 0 46C0 58.2 4.84641 69.9002 13.4731 78.5269C17.7446 82.7984 22.8156 86.1867 28.3966 88.4985C33.9775 90.8102 39.9592 92 46 92C58.2 92 69.9002 87.1536 78.5269 78.5269C87.1536 69.9002 92 58.2 92 46C92 20.562 71.3 0 46 0Z" fill="#666666"/>
</svg>
